<svg width="72" height="72" viewBox="0 0 72 72" fill="none" xmlns="http://www.w3.org/2000/svg">
  <path d="M52 52 Q64 46 60 38" stroke="#D4D2CC" stroke-width="5" stroke-linecap="round" fill="none" />
  <ellipse cx="36" cy="48" rx="20" ry="16" fill="#F0EEE8" />
  <circle cx="36" cy="28" r="18" fill="#F0EEE8" />
  <polygon points="18,14 12,4 24,10" fill="#F0EEE8" />
  <polygon points="54,14 60,4 48,10" fill="#F0EEE8" />
  <polygon points="19,13 14,6 23,10" fill="#FFD4D4" />
  <polygon points="53,13 58,6 49,10" fill="#FFD4D4" />
  <ellipse cx="28" cy="27" rx="4" ry="4.5" fill="#333" />
  <ellipse cx="44" cy="27" rx="4" ry="4.5" fill="#333" />
  <circle cx="29.5" cy="25.5" r="1.5" fill="white" />
  <circle cx="45.5" cy="25.5" r="1.5" fill="white" />
  <ellipse cx="36" cy="33" rx="2" ry="1.5" fill="#FFB3B3" />
  <path d="M33 35 Q36 38 39 35" stroke="#CCC" stroke-width="1.2" fill="none" stroke-linecap="round" />
  <line x1="38" y1="33" x2="50" y2="31" stroke="#CCC" stroke-width="0.8" />
  <line x1="38" y1="34" x2="50" y2="35" stroke="#CCC" stroke-width="0.8" />
  <line x1="34" y1="33" x2="22" y2="31" stroke="#CCC" stroke-width="0.8" />
  <line x1="34" y1="34" x2="22" y2="35" stroke="#CCC" stroke-width="0.8" />
  <circle cx="36" cy="50" r="8" fill="white" stroke="#E97B22" stroke-width="1.5" />
  <circle cx="36" cy="50" r="1" fill="#E97B22" />
  <line x1="36" y1="50" x2="36" y2="44.5" stroke="#E97B22" stroke-width="1.2" stroke-linecap="round" />
  <line x1="36" y1="50" x2="39.5" y2="51.5" stroke="#74726C" stroke-width="1" stroke-linecap="round" />
</svg>
